<svg width="173" height="40" viewBox="0 0 173 40" fill="none" xmlns="http://www.w3.org/2000/svg">
<path d="M34.1422 5.85781C30.3647 2.08031 25.3422 0 20 0C14.6578 0 9.63531 2.08031 5.85781 5.85781C2.08031 9.63531 0 14.6578 0 20C0 25.3422 2.08039 30.3646 5.85781 34.1422C9.63523 37.9198 14.6578 40 20 40C25.3422 40 30.3647 37.9197 34.1422 34.1422C37.9197 30.3647 40 25.3422 40 20C40 14.6578 37.9196 9.63539 34.1422 5.85781Z" fill="#33CC95"/>
<g clip-path="url(#clip0_35212_417)">
<path d="M20.5714 8V33.1429" stroke="white" stroke-width="2" stroke-linecap="round" stroke-linejoin="round"/>
<path d="M26.2857 12.5714H17.7143C16.6534 12.5714 15.636 12.9929 14.8859 13.743C14.1357 14.4931 13.7143 15.5106 13.7143 16.5714C13.7143 17.6323 14.1357 18.6497 14.8859 19.3999C15.636 20.15 16.6534 20.5714 17.7143 20.5714H23.4286C24.4894 20.5714 25.5069 20.9929 26.257 21.743C27.0072 22.4932 27.4286 23.5106 27.4286 24.5714C27.4286 25.6323 27.0072 26.6497 26.257 27.3999C25.5069 28.15 24.4894 28.5714 23.4286 28.5714H13.7143" stroke="white" stroke-width="2" stroke-linecap="round" stroke-linejoin="round"/>
</g>
<path d="M61.598 19.572C61.994 19.0147 62.5367 18.5527 63.226 18.186C63.93 17.8047 64.7293 17.614 65.624 17.614C66.6653 17.614 67.604 17.8707 68.44 18.384C69.2907 18.8973 69.958 19.6307 70.442 20.584C70.9407 21.5227 71.19 22.6153 71.19 23.862C71.19 25.1087 70.9407 26.216 70.442 27.184C69.958 28.1373 69.2907 28.878 68.44 29.406C67.604 29.934 66.6653 30.198 65.624 30.198C64.7293 30.198 63.9373 30.0147 63.248 29.648C62.5733 29.2813 62.0233 28.8193 61.598 28.262V35.808H58.518V17.812H61.598V19.572ZM68.044 23.862C68.044 23.1287 67.89 22.498 67.582 21.97C67.2887 21.4273 66.8927 21.0167 66.394 20.738C65.91 20.4593 65.382 20.32 64.81 20.32C64.2527 20.32 63.7247 20.4667 63.226 20.76C62.742 21.0387 62.346 21.4493 62.038 21.992C61.7447 22.5347 61.598 23.1727 61.598 23.906C61.598 24.6393 61.7447 25.2773 62.038 25.82C62.346 26.3627 62.742 26.7807 63.226 27.074C63.7247 27.3527 64.2527 27.492 64.81 27.492C65.382 27.492 65.91 27.3453 66.394 27.052C66.8927 26.7587 67.2887 26.3407 67.582 25.798C67.89 25.2553 68.044 24.61 68.044 23.862ZM72.6362 23.862C72.6362 22.63 72.8782 21.5373 73.3622 20.584C73.8608 19.6307 74.5355 18.8973 75.3862 18.384C76.2368 17.8707 77.1828 17.614 78.2242 17.614C79.0162 17.614 79.7715 17.79 80.4902 18.142C81.2088 18.4793 81.7808 18.934 82.2062 19.506V13.72H85.3302V30H82.2062V28.196C81.8248 28.7973 81.2895 29.2813 80.6002 29.648C79.9108 30.0147 79.1115 30.198 78.2022 30.198C77.1755 30.198 76.2368 29.934 75.3862 29.406C74.5355 28.878 73.8608 28.1373 73.3622 27.184C72.8782 26.216 72.6362 25.1087 72.6362 23.862ZM82.2282 23.906C82.2282 23.158 82.0815 22.52 81.7882 21.992C81.4948 21.4493 81.0988 21.0387 80.6002 20.76C80.1015 20.4667 79.5662 20.32 78.9942 20.32C78.4222 20.32 77.8942 20.4593 77.4102 20.738C76.9262 21.0167 76.5302 21.4273 76.2222 21.97C75.9288 22.498 75.7822 23.1287 75.7822 23.862C75.7822 24.5953 75.9288 25.2407 76.2222 25.798C76.5302 26.3407 76.9262 26.7587 77.4102 27.052C77.9088 27.3453 78.4368 27.492 78.9942 27.492C79.5662 27.492 80.1015 27.3527 80.6002 27.074C81.0988 26.7807 81.4948 26.37 81.7882 25.842C82.0815 25.2993 82.2282 24.654 82.2282 23.906ZM108.717 17.636C110.213 17.636 111.415 18.098 112.325 19.022C113.249 19.9313 113.711 21.2073 113.711 22.85V30H110.631V23.268C110.631 22.3147 110.389 21.5887 109.905 21.09C109.421 20.5767 108.761 20.32 107.925 20.32C107.089 20.32 106.421 20.5767 105.923 21.09C105.439 21.5887 105.197 22.3147 105.197 23.268V30H102.117V23.268C102.117 22.3147 101.875 21.5887 101.391 21.09C100.907 20.5767 100.247 20.32 99.4105 20.32C98.5598 20.32 97.8852 20.5767 97.3865 21.09C96.9025 21.5887 96.6605 22.3147 96.6605 23.268V30H93.5805V17.812H96.6605V19.286C97.0565 18.7727 97.5625 18.3693 98.1785 18.076C98.8092 17.7827 99.4985 17.636 100.247 17.636C101.2 17.636 102.051 17.8413 102.799 18.252C103.547 18.648 104.126 19.22 104.537 19.968C104.933 19.264 105.505 18.6993 106.253 18.274C107.015 17.8487 107.837 17.636 108.717 17.636ZM122.045 30.198C120.872 30.198 119.816 29.9413 118.877 29.428C117.939 28.9 117.198 28.1593 116.655 27.206C116.127 26.2527 115.863 25.1527 115.863 23.906C115.863 22.6593 116.135 21.5593 116.677 20.606C117.235 19.6527 117.99 18.9193 118.943 18.406C119.897 17.878 120.96 17.614 122.133 17.614C123.307 17.614 124.37 17.878 125.323 18.406C126.277 18.9193 127.025 19.6527 127.567 20.606C128.125 21.5593 128.403 22.6593 128.403 23.906C128.403 25.1527 128.117 26.2527 127.545 27.206C126.988 28.1593 126.225 28.9 125.257 29.428C124.304 29.9413 123.233 30.198 122.045 30.198ZM122.045 27.514C122.603 27.514 123.123 27.382 123.607 27.118C124.106 26.8393 124.502 26.4287 124.795 25.886C125.089 25.3433 125.235 24.6833 125.235 23.906C125.235 22.7473 124.927 21.86 124.311 21.244C123.71 20.6133 122.969 20.298 122.089 20.298C121.209 20.298 120.469 20.6133 119.867 21.244C119.281 21.86 118.987 22.7473 118.987 23.906C118.987 25.0647 119.273 25.9593 119.845 26.59C120.432 27.206 121.165 27.514 122.045 27.514ZM137.417 17.636C138.869 17.636 140.042 18.098 140.937 19.022C141.831 19.9313 142.279 21.2073 142.279 22.85V30H139.199V23.268C139.199 22.3 138.957 21.5593 138.473 21.046C137.989 20.518 137.329 20.254 136.493 20.254C135.642 20.254 134.967 20.518 134.469 21.046C133.985 21.5593 133.743 22.3 133.743 23.268V30H130.663V17.812H133.743V19.33C134.153 18.802 134.674 18.3913 135.305 18.098C135.95 17.79 136.654 17.636 137.417 17.636ZM156.537 23.642C156.537 24.082 156.508 24.478 156.449 24.83H147.539C147.613 25.71 147.921 26.3993 148.463 26.898C149.006 27.3967 149.673 27.646 150.465 27.646C151.609 27.646 152.423 27.1547 152.907 26.172H156.229C155.877 27.3453 155.203 28.3133 154.205 29.076C153.208 29.824 151.983 30.198 150.531 30.198C149.358 30.198 148.302 29.9413 147.363 29.428C146.439 28.9 145.713 28.1593 145.185 27.206C144.672 26.2527 144.415 25.1527 144.415 23.906C144.415 22.6447 144.672 21.5373 145.185 20.584C145.699 19.6307 146.417 18.8973 147.341 18.384C148.265 17.8707 149.329 17.614 150.531 17.614C151.69 17.614 152.724 17.8633 153.633 18.362C154.557 18.8607 155.269 19.572 155.767 20.496C156.281 21.4053 156.537 22.454 156.537 23.642ZM153.347 22.762C153.333 21.97 153.047 21.3393 152.489 20.87C151.932 20.386 151.25 20.144 150.443 20.144C149.681 20.144 149.035 20.3787 148.507 20.848C147.994 21.3027 147.679 21.9407 147.561 22.762H153.347ZM170.446 17.812L162.9 35.764H159.622L162.262 29.692L157.378 17.812H160.832L163.978 26.326L167.168 17.812H170.446Z" fill="white"/>
<defs>
<clipPath id="clip0_35212_417">
<rect width="27.4286" height="27.4286" fill="white" transform="translate(6.85715 6.85714)"/>
</clipPath>
</defs>
</svg>
